<?xml version="1.0" standalone="no"?>
<!DOCTYPE svg PUBLIC "-//W3C//DTD SVG 20010904//EN"
 "http://www.w3.org/TR/2001/REC-SVG-20010904/DTD/svg10.dtd">
<svg version="1.0" xmlns="http://www.w3.org/2000/svg"
 width="500.000000pt" height="500.000000pt" viewBox="0 0 500.000000 500.000000"
 preserveAspectRatio="xMidYMid meet">

<g transform="translate(0.000000,500.000000) scale(0.100000,-0.100000)"
fill="#000000" stroke="none">
<path d="M1410 4464 c-597 -245 -1094 -454 -1105 -465 -20 -19 -20 -35 -23
-907 -1 -488 0 -902 3 -921 14 -76 95 -106 152 -57 l28 24 5 868 5 868 25 14
c14 7 475 197 1024 422 l999 408 1016 -415 c559 -229 1022 -421 1029 -426 9
-8 12 -381 10 -1831 l-3 -1821 -197 -3 -198 -2 0 1470 0 1470 50 0 c60 0 114
20 129 48 18 34 13 79 -13 109 l-24 28 -1769 3 c-972 1 -1783 0 -1801 -3 -48
-9 -72 -37 -72 -86 0 -22 4 -49 10 -59 13 -24 62 -40 127 -40 l53 0 -2 -1467
-3 -1468 -197 -3 -198 -2 0 597 c0 575 -1 599 -20 630 -37 62 -135 50 -159
-18 -8 -22 -11 -215 -11 -619 l0 -588 -71 -4 c-64 -3 -74 -7 -96 -33 -21 -24
-24 -36 -20 -69 4 -25 14 -48 27 -58 21 -17 145 -18 2404 -18 l2383 0 21 23
c29 31 30 99 2 127 -22 22 -45 29 -115 32 l-50 3 -5 1877 -5 1878 -25 23 c-30
28 -2147 897 -2200 903 -28 3 -245 -82 -1120 -442z m2578 -1406 l-3 -103
-1465 0 -1465 0 -3 89 c-2 49 -1 95 2 103 4 11 261 13 1471 13 l1466 0 -3
-102z m0 -390 l-3 -103 -1465 0 -1465 0 -3 89 c-2 49 -1 95 2 103 4 11 261 13
1471 13 l1466 0 -3 -102z m2 -1368 l0 -1080 -100 0 -100 0 -2 949 -3 949 -24
26 -24 26 -628 0 -627 0 -26 -31 -26 -31 0 -454 0 -454 -540 0 c-561 0 -591
-2 -616 -41 -5 -8 -11 -221 -14 -474 l-5 -460 -100 0 -100 0 -3 1065 c-1 586
0 1071 3 1078 3 9 307 12 1470 12 l1465 0 0 -1080z m-1170 517 l5 -169 28 -24
c28 -24 30 -24 253 -24 135 0 233 4 244 10 37 20 45 51 50 215 l5 160 95 0 95
0 3 -393 2 -392 -492 2 -493 3 -3 380 c-1 209 0 386 3 393 3 9 30 12 102 10
l98 -3 5 -168z m385 68 l0 -100 -95 0 -95 0 -3 89 c-2 49 0 96 2 103 4 11 27
13 98 11 l93 -3 0 -100z m-1555 -1047 c7 -229 -15 -212 275 -216 189 -3 229
-1 254 13 17 8 32 17 33 18 1 1 4 81 7 177 l6 175 103 3 102 3 0 -396 0 -395
-492 2 -493 3 -3 380 c-1 209 0 386 3 393 3 9 30 12 102 10 l98 -3 5 -167z
m388 70 l-3 -103 -100 0 -100 0 -3 89 c-2 49 -1 95 2 103 4 10 32 13 106 13
l101 0 -3 -102z m784 -68 c4 -232 -18 -214 273 -218 257 -4 276 1 294 66 6 20
11 101 11 180 l0 142 100 0 100 0 0 -395 0 -395 -492 2 -493 3 -3 380 c-1 209
0 386 3 392 3 9 33 13 104 13 l100 0 3 -170z m386 68 l-3 -103 -95 0 -95 0 -3
103 -3 102 101 0 101 0 -3 -102z"/>
<path d="M1649 4115 c-64 -21 -141 -92 -169 -157 -19 -44 -22 -65 -18 -133 3
-55 11 -93 25 -120 107 -205 411 -198 514 12 32 64 33 176 2 244 -26 58 -84
116 -141 142 -59 26 -154 31 -213 12z m150 -191 c13 -9 29 -32 37 -50 39 -93
-85 -178 -159 -110 -48 44 -48 108 0 152 31 29 87 32 122 8z"/>
<path d="M2427 4113 c-111 -38 -187 -145 -187 -264 0 -125 53 -214 158 -266
140 -69 323 -5 384 135 44 98 30 219 -35 304 -67 88 -211 129 -320 91z m156
-193 c38 -30 52 -81 33 -119 -58 -111 -222 -56 -192 65 17 67 105 96 159 54z"/>
<path d="M3235 4121 c-131 -34 -215 -145 -215 -281 0 -116 56 -207 158 -257
150 -74 333 -2 392 153 37 99 16 219 -54 301 -55 66 -194 107 -281 84z m137
-210 c27 -24 33 -36 33 -71 0 -35 -6 -47 -33 -71 -48 -43 -100 -41 -141 6 -20
23 -31 46 -31 65 0 19 11 42 31 65 41 47 93 49 141 6z"/>
<path d="M335 1869 c-33 -19 -45 -41 -45 -84 0 -55 31 -85 86 -85 30 0 47 6
65 26 31 33 33 95 3 124 -24 25 -82 35 -109 19z"/>
</g>
</svg>
